<svg width="325" height="1080" viewBox="0 0 325 1080" fill="none" xmlns="http://www.w3.org/2000/svg">
<path d="M43 1086.44C43 1100.82 51.8028 1113.74 65.1908 1119.01L139.793 1148.35C151.554 1152.97 164.895 1150.9 174.696 1142.92L198.094 1123.87C206.26 1117.23 211 1107.26 211 1096.73V996.538C211 981.473 201.36 968.098 187.068 963.334L117.819 940.251C108.432 937.122 98.1587 938.112 89.5424 942.977L60.7917 959.211C49.7986 965.418 43 977.064 43 989.688V1086.44Z" stroke="#808080" stroke-opacity="0.1" stroke-width="30"/>
<path d="M310 832.436C310 846.822 301.197 859.742 287.809 865.007L213.207 894.345C201.446 898.97 188.105 896.896 178.304 888.918L154.906 869.873C146.74 863.226 142 853.257 142 842.728V742.538C142 727.473 151.64 714.098 165.932 709.334L235.181 686.251C244.568 683.122 254.841 684.112 263.458 688.977L292.208 705.211C303.201 711.418 310 723.064 310 735.688V832.436Z" stroke="#808080" stroke-opacity="0.1" stroke-width="30"/>
<path d="M43 578.436C43 592.822 51.8028 605.742 65.1908 611.007L139.793 640.345C151.554 644.97 164.895 642.896 174.696 634.918L198.094 615.873C206.26 609.226 211 599.257 211 588.728V488.538C211 473.473 201.36 460.098 187.068 455.334L117.819 432.251C108.432 429.122 98.1587 430.112 89.5424 434.977L60.7917 451.211C49.7986 457.418 43 469.064 43 481.688V578.436Z" stroke="#808080" stroke-opacity="0.1" stroke-width="30"/>
<path d="M142 243.564C142 229.178 150.803 216.258 164.191 210.993L238.793 181.655C250.554 177.03 263.895 179.104 273.696 187.082L297.094 206.127C305.26 212.774 310 222.743 310 233.272V333.462C310 348.527 300.36 361.902 286.068 366.666L216.819 389.749C207.432 392.878 197.159 391.888 188.542 387.023L159.792 370.789C148.799 364.582 142 352.936 142 340.312V243.564Z" stroke="#808080" stroke-opacity="0.1" stroke-width="30"/>
<path d="M167.436 -54C181.822 -54 194.742 -45.1972 200.007 -31.8092L229.345 42.7927C233.97 54.5538 231.896 67.8948 223.918 77.6963L204.873 101.094C198.226 109.26 188.257 114 177.728 114H77.538C62.4729 114 49.098 104.36 44.334 90.068L21.251 20.8187C18.1219 11.4316 19.1125 1.15866 23.9774 -7.45762L40.2108 -36.2083C46.4178 -47.2014 58.0639 -54 70.6883 -54H167.436Z" stroke="#808080" stroke-opacity="0.1" stroke-width="30"/>
</svg>
